<?xml version="1.0" encoding="utf-8"?>
<svg xmlns="http://www.w3.org/2000/svg" xmlns:xlink="http://www.w3.org/1999/xlink" xml:space="preserve" width="1138.5" height="1158.21875" viewBox="0 0 1138.5 1158.21875"><rect width="670.76625" height="670.76625" fill="#ffffff" x="237.1875" y="237.1875"/><g transform="scale(47.4375)" fill="#000000"><path d="M17.6,0H6.4c-1,0-1.8,0.8-1.8,1.8v20.4c0,1,0.8,1.8,1.8,1.8h11.1c1,0,1.8-0.8,1.8-1.8V1.8C19.4,0.8,18.6,0,17.6,0z M11.2,2.3h2.7c0.1,0,0.2,0.1,0.2,0.2S14,2.7,13.9,2.7h-2.7c-0.1,0-0.2-0.1-0.2-0.2S11.1,2.3,11.2,2.3z M10.1,2.3 c0.1,0,0.2,0.1,0.2,0.2s-0.1,0.2-0.2,0.2c-0.1,0-0.2-0.1-0.2-0.2S10,2.3,10.1,2.3z M19,19H5V5h14V19z"/></g><g fill="#000000">
<g transform="translate(434.25,272.25) scale(3.09)"><rect width="6" height="6"/></g>
<g transform="translate(452.25,272.25) scale(3.09)"><rect width="6" height="6"/></g>
<g transform="translate(470.25,272.25) scale(3.09)"><rect width="6" height="6"/></g>
<g transform="translate(560.25,272.25) scale(3.09)"><rect width="6" height="6"/></g>
<g transform="translate(596.25,272.25) scale(3.09)"><rect width="6" height="6"/></g>
<g transform="translate(614.25,272.25) scale(3.09)"><rect width="6" height="6"/></g>
<g transform="translate(632.25,272.25) scale(3.09)"><rect width="6" height="6"/></g>
<g transform="translate(650.25,272.25) scale(3.09)"><rect width="6" height="6"/></g>
<g transform="translate(686.25,272.25) scale(3.09)"><rect width="6" height="6"/></g>
<g transform="translate(488.25,290.25) scale(3.09)"><rect width="6" height="6"/></g>
<g transform="translate(542.25,290.25) scale(3.09)"><rect width="6" height="6"/></g>
<g transform="translate(596.25,290.25) scale(3.09)"><rect width="6" height="6"/></g>
<g transform="translate(650.25,290.25) scale(3.09)"><rect width="6" height="6"/></g>
<g transform="translate(668.25,290.25) scale(3.09)"><rect width="6" height="6"/></g>
<g transform="translate(704.25,290.25) scale(3.09)"><rect width="6" height="6"/></g>
<g transform="translate(416.25,308.25) scale(3.09)"><rect width="6" height="6"/></g>
<g transform="translate(434.25,308.25) scale(3.09)"><rect width="6" height="6"/></g>
<g transform="translate(452.25,308.25) scale(3.09)"><rect width="6" height="6"/></g>
<g transform="translate(470.25,308.25) scale(3.09)"><rect width="6" height="6"/></g>
<g transform="translate(488.25,308.25) scale(3.09)"><rect width="6" height="6"/></g>
<g transform="translate(524.25,308.25) scale(3.09)"><rect width="6" height="6"/></g>
<g transform="translate(542.25,308.25) scale(3.09)"><rect width="6" height="6"/></g>
<g transform="translate(632.25,308.25) scale(3.09)"><rect width="6" height="6"/></g>
<g transform="translate(650.25,308.25) scale(3.09)"><rect width="6" height="6"/></g>
<g transform="translate(416.25,326.25) scale(3.09)"><rect width="6" height="6"/></g>
<g transform="translate(434.25,326.25) scale(3.09)"><rect width="6" height="6"/></g>
<g transform="translate(470.25,326.25) scale(3.09)"><rect width="6" height="6"/></g>
<g transform="translate(488.25,326.25) scale(3.09)"><rect width="6" height="6"/></g>
<g transform="translate(596.25,326.25) scale(3.09)"><rect width="6" height="6"/></g>
<g transform="translate(650.25,326.25) scale(3.09)"><rect width="6" height="6"/></g>
<g transform="translate(668.25,326.25) scale(3.09)"><rect width="6" height="6"/></g>
<g transform="translate(686.25,326.25) scale(3.09)"><rect width="6" height="6"/></g>
<g transform="translate(704.25,326.25) scale(3.09)"><rect width="6" height="6"/></g>
<g transform="translate(416.25,344.25) scale(3.09)"><rect width="6" height="6"/></g>
<g transform="translate(434.25,344.25) scale(3.09)"><rect width="6" height="6"/></g>
<g transform="translate(470.25,344.25) scale(3.09)"><rect width="6" height="6"/></g>
<g transform="translate(488.25,344.25) scale(3.09)"><rect width="6" height="6"/></g>
<g transform="translate(524.25,344.25) scale(3.09)"><rect width="6" height="6"/></g>
<g transform="translate(542.25,344.25) scale(3.09)"><rect width="6" height="6"/></g>
<g transform="translate(560.25,344.25) scale(3.09)"><rect width="6" height="6"/></g>
<g transform="translate(578.25,344.25) scale(3.09)"><rect width="6" height="6"/></g>
<g transform="translate(632.25,344.25) scale(3.09)"><rect width="6" height="6"/></g>
<g transform="translate(416.25,362.25) scale(3.09)"><rect width="6" height="6"/></g>
<g transform="translate(452.25,362.25) scale(3.09)"><rect width="6" height="6"/></g>
<g transform="translate(524.25,362.25) scale(3.09)"><rect width="6" height="6"/></g>
<g transform="translate(596.25,362.25) scale(3.09)"><rect width="6" height="6"/></g>
<g transform="translate(614.25,362.25) scale(3.09)"><rect width="6" height="6"/></g>
<g transform="translate(668.25,362.25) scale(3.09)"><rect width="6" height="6"/></g>
<g transform="translate(704.25,362.25) scale(3.09)"><rect width="6" height="6"/></g>
<g transform="translate(416.25,380.25) scale(3.09)"><rect width="6" height="6"/></g>
<g transform="translate(452.25,380.25) scale(3.09)"><rect width="6" height="6"/></g>
<g transform="translate(488.25,380.25) scale(3.09)"><rect width="6" height="6"/></g>
<g transform="translate(524.25,380.25) scale(3.09)"><rect width="6" height="6"/></g>
<g transform="translate(560.25,380.25) scale(3.09)"><rect width="6" height="6"/></g>
<g transform="translate(596.25,380.25) scale(3.09)"><rect width="6" height="6"/></g>
<g transform="translate(632.25,380.25) scale(3.09)"><rect width="6" height="6"/></g>
<g transform="translate(668.25,380.25) scale(3.09)"><rect width="6" height="6"/></g>
<g transform="translate(704.25,380.25) scale(3.09)"><rect width="6" height="6"/></g>
<g transform="translate(416.25,398.25) scale(3.09)"><rect width="6" height="6"/></g>
<g transform="translate(452.25,398.25) scale(3.09)"><rect width="6" height="6"/></g>
<g transform="translate(470.25,398.25) scale(3.09)"><rect width="6" height="6"/></g>
<g transform="translate(524.25,398.25) scale(3.09)"><rect width="6" height="6"/></g>
<g transform="translate(560.25,398.25) scale(3.09)"><rect width="6" height="6"/></g>
<g transform="translate(596.25,398.25) scale(3.09)"><rect width="6" height="6"/></g>
<g transform="translate(614.25,398.25) scale(3.09)"><rect width="6" height="6"/></g>
<g transform="translate(632.25,398.25) scale(3.09)"><rect width="6" height="6"/></g>
<g transform="translate(650.25,398.25) scale(3.09)"><rect width="6" height="6"/></g>
<g transform="translate(668.25,398.25) scale(3.09)"><rect width="6" height="6"/></g>
<g transform="translate(704.25,398.25) scale(3.09)"><rect width="6" height="6"/></g>
<g transform="translate(272.25,416.25) scale(3.09)"><rect width="6" height="6"/></g>
<g transform="translate(308.25,416.25) scale(3.09)"><rect width="6" height="6"/></g>
<g transform="translate(326.25,416.25) scale(3.09)"><rect width="6" height="6"/></g>
<g transform="translate(344.25,416.25) scale(3.09)"><rect width="6" height="6"/></g>
<g transform="translate(362.25,416.25) scale(3.09)"><rect width="6" height="6"/></g>
<g transform="translate(380.25,416.25) scale(3.09)"><rect width="6" height="6"/></g>
<g transform="translate(434.25,416.25) scale(3.09)"><rect width="6" height="6"/></g>
<g transform="translate(470.25,416.25) scale(3.09)"><rect width="6" height="6"/></g>
<g transform="translate(506.25,416.25) scale(3.09)"><rect width="6" height="6"/></g>
<g transform="translate(524.25,416.25) scale(3.09)"><rect width="6" height="6"/></g>
<g transform="translate(578.25,416.25) scale(3.09)"><rect width="6" height="6"/></g>
<g transform="translate(614.25,416.25) scale(3.09)"><rect width="6" height="6"/></g>
<g transform="translate(632.25,416.25) scale(3.09)"><rect width="6" height="6"/></g>
<g transform="translate(668.25,416.25) scale(3.09)"><rect width="6" height="6"/></g>
<g transform="translate(704.25,416.25) scale(3.09)"><rect width="6" height="6"/></g>
<g transform="translate(740.25,416.25) scale(3.09)"><rect width="6" height="6"/></g>
<g transform="translate(758.25,416.25) scale(3.09)"><rect width="6" height="6"/></g>
<g transform="translate(776.25,416.25) scale(3.09)"><rect width="6" height="6"/></g>
<g transform="translate(794.25,416.25) scale(3.09)"><rect width="6" height="6"/></g>
<g transform="translate(812.25,416.25) scale(3.09)"><rect width="6" height="6"/></g>
<g transform="translate(290.25,434.25) scale(3.09)"><rect width="6" height="6"/></g>
<g transform="translate(308.25,434.25) scale(3.09)"><rect width="6" height="6"/></g>
<g transform="translate(326.25,434.25) scale(3.09)"><rect width="6" height="6"/></g>
<g transform="translate(362.25,434.25) scale(3.09)"><rect width="6" height="6"/></g>
<g transform="translate(434.25,434.25) scale(3.09)"><rect width="6" height="6"/></g>
<g transform="translate(452.25,434.25) scale(3.09)"><rect width="6" height="6"/></g>
<g transform="translate(470.25,434.25) scale(3.09)"><rect width="6" height="6"/></g>
<g transform="translate(488.25,434.25) scale(3.09)"><rect width="6" height="6"/></g>
<g transform="translate(506.25,434.25) scale(3.09)"><rect width="6" height="6"/></g>
<g transform="translate(524.25,434.25) scale(3.09)"><rect width="6" height="6"/></g>
<g transform="translate(560.25,434.25) scale(3.09)"><rect width="6" height="6"/></g>
<g transform="translate(578.25,434.25) scale(3.09)"><rect width="6" height="6"/></g>
<g transform="translate(596.25,434.25) scale(3.09)"><rect width="6" height="6"/></g>
<g transform="translate(614.25,434.25) scale(3.09)"><rect width="6" height="6"/></g>
<g transform="translate(632.25,434.25) scale(3.09)"><rect width="6" height="6"/></g>
<g transform="translate(650.25,434.25) scale(3.09)"><rect width="6" height="6"/></g>
<g transform="translate(668.25,434.25) scale(3.09)"><rect width="6" height="6"/></g>
<g transform="translate(686.25,434.25) scale(3.09)"><rect width="6" height="6"/></g>
<g transform="translate(740.25,434.25) scale(3.09)"><rect width="6" height="6"/></g>
<g transform="translate(758.25,434.25) scale(3.09)"><rect width="6" height="6"/></g>
<g transform="translate(794.25,434.25) scale(3.09)"><rect width="6" height="6"/></g>
<g transform="translate(812.25,434.25) scale(3.09)"><rect width="6" height="6"/></g>
<g transform="translate(848.25,434.25) scale(3.09)"><rect width="6" height="6"/></g>
<g transform="translate(272.25,452.25) scale(3.09)"><rect width="6" height="6"/></g>
<g transform="translate(344.25,452.25) scale(3.09)"><rect width="6" height="6"/></g>
<g transform="translate(362.25,452.25) scale(3.09)"><rect width="6" height="6"/></g>
<g transform="translate(380.25,452.25) scale(3.09)"><rect width="6" height="6"/></g>
<g transform="translate(470.25,452.25) scale(3.09)"><rect width="6" height="6"/></g>
<g transform="translate(506.25,452.25) scale(3.09)"><rect width="6" height="6"/></g>
<g transform="translate(524.25,452.25) scale(3.09)"><rect width="6" height="6"/></g>
<g transform="translate(542.25,452.25) scale(3.09)"><rect width="6" height="6"/></g>
<g transform="translate(560.25,452.25) scale(3.09)"><rect width="6" height="6"/></g>
<g transform="translate(578.25,452.25) scale(3.09)"><rect width="6" height="6"/></g>
<g transform="translate(632.25,452.25) scale(3.09)"><rect width="6" height="6"/></g>
<g transform="translate(668.25,452.25) scale(3.09)"><rect width="6" height="6"/></g>
<g transform="translate(704.25,452.25) scale(3.09)"><rect width="6" height="6"/></g>
<g transform="translate(740.25,452.25) scale(3.09)"><rect width="6" height="6"/></g>
<g transform="translate(776.25,452.25) scale(3.09)"><rect width="6" height="6"/></g>
<g transform="translate(812.25,452.25) scale(3.09)"><rect width="6" height="6"/></g>
<g transform="translate(830.25,452.25) scale(3.09)"><rect width="6" height="6"/></g>
<g transform="translate(416.25,470.25) scale(3.09)"><rect width="6" height="6"/></g>
<g transform="translate(434.25,470.25) scale(3.09)"><rect width="6" height="6"/></g>
<g transform="translate(506.25,470.25) scale(3.09)"><rect width="6" height="6"/></g>
<g transform="translate(560.25,470.25) scale(3.09)"><rect width="6" height="6"/></g>
<g transform="translate(578.25,470.25) scale(3.09)"><rect width="6" height="6"/></g>
<g transform="translate(596.25,470.25) scale(3.09)"><rect width="6" height="6"/></g>
<g transform="translate(650.25,470.25) scale(3.09)"><rect width="6" height="6"/></g>
<g transform="translate(704.25,470.25) scale(3.09)"><rect width="6" height="6"/></g>
<g transform="translate(722.25,470.25) scale(3.09)"><rect width="6" height="6"/></g>
<g transform="translate(776.25,470.25) scale(3.09)"><rect width="6" height="6"/></g>
<g transform="translate(794.25,470.25) scale(3.09)"><rect width="6" height="6"/></g>
<g transform="translate(812.25,470.25) scale(3.09)"><rect width="6" height="6"/></g>
<g transform="translate(848.25,470.25) scale(3.09)"><rect width="6" height="6"/></g>
<g transform="translate(290.25,488.25) scale(3.09)"><rect width="6" height="6"/></g>
<g transform="translate(308.25,488.25) scale(3.09)"><rect width="6" height="6"/></g>
<g transform="translate(326.25,488.25) scale(3.09)"><rect width="6" height="6"/></g>
<g transform="translate(362.25,488.25) scale(3.09)"><rect width="6" height="6"/></g>
<g transform="translate(380.25,488.25) scale(3.09)"><rect width="6" height="6"/></g>
<g transform="translate(434.25,488.25) scale(3.09)"><rect width="6" height="6"/></g>
<g transform="translate(452.25,488.25) scale(3.09)"><rect width="6" height="6"/></g>
<g transform="translate(470.25,488.25) scale(3.09)"><rect width="6" height="6"/></g>
<g transform="translate(524.25,488.25) scale(3.09)"><rect width="6" height="6"/></g>
<g transform="translate(542.25,488.25) scale(3.09)"><rect width="6" height="6"/></g>
<g transform="translate(560.25,488.25) scale(3.09)"><rect width="6" height="6"/></g>
<g transform="translate(614.25,488.25) scale(3.09)"><rect width="6" height="6"/></g>
<g transform="translate(632.25,488.25) scale(3.09)"><rect width="6" height="6"/></g>
<g transform="translate(686.25,488.25) scale(3.09)"><rect width="6" height="6"/></g>
<g transform="translate(722.25,488.25) scale(3.09)"><rect width="6" height="6"/></g>
<g transform="translate(758.25,488.25) scale(3.09)"><rect width="6" height="6"/></g>
<g transform="translate(776.25,488.25) scale(3.09)"><rect width="6" height="6"/></g>
<g transform="translate(794.25,488.25) scale(3.09)"><rect width="6" height="6"/></g>
<g transform="translate(830.25,488.25) scale(3.09)"><rect width="6" height="6"/></g>
<g transform="translate(848.25,488.25) scale(3.09)"><rect width="6" height="6"/></g>
<g transform="translate(272.25,506.25) scale(3.09)"><rect width="6" height="6"/></g>
<g transform="translate(290.25,506.25) scale(3.09)"><rect width="6" height="6"/></g>
<g transform="translate(326.25,506.25) scale(3.09)"><rect width="6" height="6"/></g>
<g transform="translate(344.25,506.25) scale(3.09)"><rect width="6" height="6"/></g>
<g transform="translate(362.25,506.25) scale(3.09)"><rect width="6" height="6"/></g>
<g transform="translate(398.25,506.25) scale(3.09)"><rect width="6" height="6"/></g>
<g transform="translate(434.25,506.25) scale(3.09)"><rect width="6" height="6"/></g>
<g transform="translate(470.25,506.25) scale(3.09)"><rect width="6" height="6"/></g>
<g transform="translate(506.25,506.25) scale(3.09)"><rect width="6" height="6"/></g>
<g transform="translate(542.25,506.25) scale(3.09)"><rect width="6" height="6"/></g>
<g transform="translate(578.25,506.25) scale(3.09)"><rect width="6" height="6"/></g>
<g transform="translate(596.25,506.25) scale(3.09)"><rect width="6" height="6"/></g>
<g transform="translate(650.25,506.25) scale(3.09)"><rect width="6" height="6"/></g>
<g transform="translate(722.25,506.25) scale(3.09)"><rect width="6" height="6"/></g>
<g transform="translate(740.25,506.25) scale(3.09)"><rect width="6" height="6"/></g>
<g transform="translate(812.25,506.25) scale(3.09)"><rect width="6" height="6"/></g>
<g transform="translate(830.25,506.25) scale(3.09)"><rect width="6" height="6"/></g>
<g transform="translate(848.25,506.25) scale(3.09)"><rect width="6" height="6"/></g>
<g transform="translate(272.25,524.25) scale(3.09)"><rect width="6" height="6"/></g>
<g transform="translate(308.25,524.25) scale(3.09)"><rect width="6" height="6"/></g>
<g transform="translate(326.25,524.25) scale(3.09)"><rect width="6" height="6"/></g>
<g transform="translate(362.25,524.25) scale(3.09)"><rect width="6" height="6"/></g>
<g transform="translate(380.25,524.25) scale(3.09)"><rect width="6" height="6"/></g>
<g transform="translate(398.25,524.25) scale(3.09)"><rect width="6" height="6"/></g>
<g transform="translate(416.25,524.25) scale(3.09)"><rect width="6" height="6"/></g>
<g transform="translate(434.25,524.25) scale(3.09)"><rect width="6" height="6"/></g>
<g transform="translate(470.25,524.25) scale(3.09)"><rect width="6" height="6"/></g>
<g transform="translate(488.25,524.25) scale(3.09)"><rect width="6" height="6"/></g>
<g transform="translate(506.25,524.25) scale(3.09)"><rect width="6" height="6"/></g>
<g transform="translate(542.25,524.25) scale(3.09)"><rect width="6" height="6"/></g>
<g transform="translate(560.25,524.25) scale(3.09)"><rect width="6" height="6"/></g>
<g transform="translate(578.25,524.25) scale(3.09)"><rect width="6" height="6"/></g>
<g transform="translate(632.25,524.25) scale(3.09)"><rect width="6" height="6"/></g>
<g transform="translate(650.25,524.25) scale(3.09)"><rect width="6" height="6"/></g>
<g transform="translate(722.25,524.25) scale(3.09)"><rect width="6" height="6"/></g>
<g transform="translate(740.25,524.25) scale(3.09)"><rect width="6" height="6"/></g>
<g transform="translate(758.25,524.25) scale(3.09)"><rect width="6" height="6"/></g>
<g transform="translate(794.25,524.25) scale(3.09)"><rect width="6" height="6"/></g>
<g transform="translate(830.25,524.25) scale(3.09)"><rect width="6" height="6"/></g>
<g transform="translate(308.25,542.25) scale(3.09)"><rect width="6" height="6"/></g>
<g transform="translate(326.25,542.25) scale(3.09)"><rect width="6" height="6"/></g>
<g transform="translate(344.25,542.25) scale(3.09)"><rect width="6" height="6"/></g>
<g transform="translate(362.25,542.25) scale(3.09)"><rect width="6" height="6"/></g>
<g transform="translate(506.25,542.25) scale(3.09)"><rect width="6" height="6"/></g>
<g transform="translate(524.25,542.25) scale(3.09)"><rect width="6" height="6"/></g>
<g transform="translate(542.25,542.25) scale(3.09)"><rect width="6" height="6"/></g>
<g transform="translate(650.25,542.25) scale(3.09)"><rect width="6" height="6"/></g>
<g transform="translate(686.25,542.25) scale(3.09)"><rect width="6" height="6"/></g>
<g transform="translate(722.25,542.25) scale(3.09)"><rect width="6" height="6"/></g>
<g transform="translate(740.25,542.25) scale(3.09)"><rect width="6" height="6"/></g>
<g transform="translate(776.25,542.25) scale(3.09)"><rect width="6" height="6"/></g>
<g transform="translate(794.25,542.25) scale(3.09)"><rect width="6" height="6"/></g>
<g transform="translate(812.25,542.25) scale(3.09)"><rect width="6" height="6"/></g>
<g transform="translate(272.25,560.25) scale(3.09)"><rect width="6" height="6"/></g>
<g transform="translate(326.25,560.25) scale(3.09)"><rect width="6" height="6"/></g>
<g transform="translate(380.25,560.25) scale(3.09)"><rect width="6" height="6"/></g>
<g transform="translate(470.25,560.25) scale(3.09)"><rect width="6" height="6"/></g>
<g transform="translate(488.25,560.25) scale(3.09)"><rect width="6" height="6"/></g>
<g transform="translate(506.25,560.25) scale(3.09)"><rect width="6" height="6"/></g>
<g transform="translate(524.25,560.25) scale(3.09)"><rect width="6" height="6"/></g>
<g transform="translate(542.25,560.25) scale(3.09)"><rect width="6" height="6"/></g>
<g transform="translate(560.25,560.25) scale(3.09)"><rect width="6" height="6"/></g>
<g transform="translate(578.25,560.25) scale(3.09)"><rect width="6" height="6"/></g>
<g transform="translate(632.25,560.25) scale(3.09)"><rect width="6" height="6"/></g>
<g transform="translate(668.25,560.25) scale(3.09)"><rect width="6" height="6"/></g>
<g transform="translate(686.25,560.25) scale(3.09)"><rect width="6" height="6"/></g>
<g transform="translate(722.25,560.25) scale(3.09)"><rect width="6" height="6"/></g>
<g transform="translate(758.25,560.25) scale(3.09)"><rect width="6" height="6"/></g>
<g transform="translate(776.25,560.25) scale(3.09)"><rect width="6" height="6"/></g>
<g transform="translate(848.25,560.25) scale(3.09)"><rect width="6" height="6"/></g>
<g transform="translate(326.25,578.25) scale(3.09)"><rect width="6" height="6"/></g>
<g transform="translate(344.25,578.25) scale(3.09)"><rect width="6" height="6"/></g>
<g transform="translate(362.25,578.25) scale(3.09)"><rect width="6" height="6"/></g>
<g transform="translate(434.25,578.25) scale(3.09)"><rect width="6" height="6"/></g>
<g transform="translate(470.25,578.25) scale(3.09)"><rect width="6" height="6"/></g>
<g transform="translate(506.25,578.25) scale(3.09)"><rect width="6" height="6"/></g>
<g transform="translate(524.25,578.25) scale(3.09)"><rect width="6" height="6"/></g>
<g transform="translate(560.25,578.25) scale(3.09)"><rect width="6" height="6"/></g>
<g transform="translate(596.25,578.25) scale(3.09)"><rect width="6" height="6"/></g>
<g transform="translate(614.25,578.25) scale(3.09)"><rect width="6" height="6"/></g>
<g transform="translate(632.25,578.25) scale(3.09)"><rect width="6" height="6"/></g>
<g transform="translate(686.25,578.25) scale(3.09)"><rect width="6" height="6"/></g>
<g transform="translate(740.25,578.25) scale(3.09)"><rect width="6" height="6"/></g>
<g transform="translate(758.25,578.25) scale(3.09)"><rect width="6" height="6"/></g>
<g transform="translate(794.25,578.25) scale(3.09)"><rect width="6" height="6"/></g>
<g transform="translate(812.25,578.25) scale(3.09)"><rect width="6" height="6"/></g>
<g transform="translate(848.25,578.25) scale(3.09)"><rect width="6" height="6"/></g>
<g transform="translate(272.25,596.25) scale(3.09)"><rect width="6" height="6"/></g>
<g transform="translate(290.25,596.25) scale(3.09)"><rect width="6" height="6"/></g>
<g transform="translate(362.25,596.25) scale(3.09)"><rect width="6" height="6"/></g>
<g transform="translate(380.25,596.25) scale(3.09)"><rect width="6" height="6"/></g>
<g transform="translate(452.25,596.25) scale(3.09)"><rect width="6" height="6"/></g>
<g transform="translate(488.25,596.25) scale(3.09)"><rect width="6" height="6"/></g>
<g transform="translate(506.25,596.25) scale(3.09)"><rect width="6" height="6"/></g>
<g transform="translate(542.25,596.25) scale(3.09)"><rect width="6" height="6"/></g>
<g transform="translate(560.25,596.25) scale(3.09)"><rect width="6" height="6"/></g>
<g transform="translate(596.25,596.25) scale(3.09)"><rect width="6" height="6"/></g>
<g transform="translate(668.25,596.25) scale(3.09)"><rect width="6" height="6"/></g>
<g transform="translate(758.25,596.25) scale(3.09)"><rect width="6" height="6"/></g>
<g transform="translate(776.25,596.25) scale(3.09)"><rect width="6" height="6"/></g>
<g transform="translate(812.25,596.25) scale(3.09)"><rect width="6" height="6"/></g>
<g transform="translate(290.25,614.25) scale(3.09)"><rect width="6" height="6"/></g>
<g transform="translate(362.25,614.25) scale(3.09)"><rect width="6" height="6"/></g>
<g transform="translate(398.25,614.25) scale(3.09)"><rect width="6" height="6"/></g>
<g transform="translate(434.25,614.25) scale(3.09)"><rect width="6" height="6"/></g>
<g transform="translate(452.25,614.25) scale(3.09)"><rect width="6" height="6"/></g>
<g transform="translate(470.25,614.25) scale(3.09)"><rect width="6" height="6"/></g>
<g transform="translate(488.25,614.25) scale(3.09)"><rect width="6" height="6"/></g>
<g transform="translate(524.25,614.25) scale(3.09)"><rect width="6" height="6"/></g>
<g transform="translate(542.25,614.25) scale(3.09)"><rect width="6" height="6"/></g>
<g transform="translate(650.25,614.25) scale(3.09)"><rect width="6" height="6"/></g>
<g transform="translate(668.25,614.25) scale(3.09)"><rect width="6" height="6"/></g>
<g transform="translate(722.25,614.25) scale(3.09)"><rect width="6" height="6"/></g>
<g transform="translate(740.25,614.25) scale(3.09)"><rect width="6" height="6"/></g>
<g transform="translate(758.25,614.25) scale(3.09)"><rect width="6" height="6"/></g>
<g transform="translate(776.25,614.25) scale(3.09)"><rect width="6" height="6"/></g>
<g transform="translate(794.25,614.25) scale(3.09)"><rect width="6" height="6"/></g>
<g transform="translate(812.25,614.25) scale(3.09)"><rect width="6" height="6"/></g>
<g transform="translate(830.25,614.25) scale(3.09)"><rect width="6" height="6"/></g>
<g transform="translate(272.25,632.25) scale(3.09)"><rect width="6" height="6"/></g>
<g transform="translate(290.25,632.25) scale(3.09)"><rect width="6" height="6"/></g>
<g transform="translate(362.25,632.25) scale(3.09)"><rect width="6" height="6"/></g>
<g transform="translate(380.25,632.25) scale(3.09)"><rect width="6" height="6"/></g>
<g transform="translate(452.25,632.25) scale(3.09)"><rect width="6" height="6"/></g>
<g transform="translate(488.25,632.25) scale(3.09)"><rect width="6" height="6"/></g>
<g transform="translate(506.25,632.25) scale(3.09)"><rect width="6" height="6"/></g>
<g transform="translate(524.25,632.25) scale(3.09)"><rect width="6" height="6"/></g>
<g transform="translate(596.25,632.25) scale(3.09)"><rect width="6" height="6"/></g>
<g transform="translate(650.25,632.25) scale(3.09)"><rect width="6" height="6"/></g>
<g transform="translate(704.25,632.25) scale(3.09)"><rect width="6" height="6"/></g>
<g transform="translate(722.25,632.25) scale(3.09)"><rect width="6" height="6"/></g>
<g transform="translate(758.25,632.25) scale(3.09)"><rect width="6" height="6"/></g>
<g transform="translate(776.25,632.25) scale(3.09)"><rect width="6" height="6"/></g>
<g transform="translate(794.25,632.25) scale(3.09)"><rect width="6" height="6"/></g>
<g transform="translate(830.25,632.25) scale(3.09)"><rect width="6" height="6"/></g>
<g transform="translate(272.25,650.25) scale(3.09)"><rect width="6" height="6"/></g>
<g transform="translate(290.25,650.25) scale(3.09)"><rect width="6" height="6"/></g>
<g transform="translate(344.25,650.25) scale(3.09)"><rect width="6" height="6"/></g>
<g transform="translate(362.25,650.25) scale(3.09)"><rect width="6" height="6"/></g>
<g transform="translate(434.25,650.25) scale(3.09)"><rect width="6" height="6"/></g>
<g transform="translate(452.25,650.25) scale(3.09)"><rect width="6" height="6"/></g>
<g transform="translate(542.25,650.25) scale(3.09)"><rect width="6" height="6"/></g>
<g transform="translate(560.25,650.25) scale(3.09)"><rect width="6" height="6"/></g>
<g transform="translate(578.25,650.25) scale(3.09)"><rect width="6" height="6"/></g>
<g transform="translate(632.25,650.25) scale(3.09)"><rect width="6" height="6"/></g>
<g transform="translate(650.25,650.25) scale(3.09)"><rect width="6" height="6"/></g>
<g transform="translate(686.25,650.25) scale(3.09)"><rect width="6" height="6"/></g>
<g transform="translate(722.25,650.25) scale(3.09)"><rect width="6" height="6"/></g>
<g transform="translate(740.25,650.25) scale(3.09)"><rect width="6" height="6"/></g>
<g transform="translate(794.25,650.25) scale(3.09)"><rect width="6" height="6"/></g>
<g transform="translate(848.25,650.25) scale(3.09)"><rect width="6" height="6"/></g>
<g transform="translate(272.25,668.25) scale(3.09)"><rect width="6" height="6"/></g>
<g transform="translate(344.25,668.25) scale(3.09)"><rect width="6" height="6"/></g>
<g transform="translate(380.25,668.25) scale(3.09)"><rect width="6" height="6"/></g>
<g transform="translate(398.25,668.25) scale(3.09)"><rect width="6" height="6"/></g>
<g transform="translate(416.25,668.25) scale(3.09)"><rect width="6" height="6"/></g>
<g transform="translate(434.25,668.25) scale(3.09)"><rect width="6" height="6"/></g>
<g transform="translate(452.25,668.25) scale(3.09)"><rect width="6" height="6"/></g>
<g transform="translate(488.25,668.25) scale(3.09)"><rect width="6" height="6"/></g>
<g transform="translate(506.25,668.25) scale(3.09)"><rect width="6" height="6"/></g>
<g transform="translate(578.25,668.25) scale(3.09)"><rect width="6" height="6"/></g>
<g transform="translate(614.25,668.25) scale(3.09)"><rect width="6" height="6"/></g>
<g transform="translate(650.25,668.25) scale(3.09)"><rect width="6" height="6"/></g>
<g transform="translate(668.25,668.25) scale(3.09)"><rect width="6" height="6"/></g>
<g transform="translate(704.25,668.25) scale(3.09)"><rect width="6" height="6"/></g>
<g transform="translate(776.25,668.25) scale(3.09)"><rect width="6" height="6"/></g>
<g transform="translate(794.25,668.25) scale(3.09)"><rect width="6" height="6"/></g>
<g transform="translate(830.25,668.25) scale(3.09)"><rect width="6" height="6"/></g>
<g transform="translate(272.25,686.25) scale(3.09)"><rect width="6" height="6"/></g>
<g transform="translate(326.25,686.25) scale(3.09)"><rect width="6" height="6"/></g>
<g transform="translate(398.25,686.25) scale(3.09)"><rect width="6" height="6"/></g>
<g transform="translate(416.25,686.25) scale(3.09)"><rect width="6" height="6"/></g>
<g transform="translate(452.25,686.25) scale(3.09)"><rect width="6" height="6"/></g>
<g transform="translate(488.25,686.25) scale(3.09)"><rect width="6" height="6"/></g>
<g transform="translate(560.25,686.25) scale(3.09)"><rect width="6" height="6"/></g>
<g transform="translate(596.25,686.25) scale(3.09)"><rect width="6" height="6"/></g>
<g transform="translate(614.25,686.25) scale(3.09)"><rect width="6" height="6"/></g>
<g transform="translate(632.25,686.25) scale(3.09)"><rect width="6" height="6"/></g>
<g transform="translate(650.25,686.25) scale(3.09)"><rect width="6" height="6"/></g>
<g transform="translate(668.25,686.25) scale(3.09)"><rect width="6" height="6"/></g>
<g transform="translate(722.25,686.25) scale(3.09)"><rect width="6" height="6"/></g>
<g transform="translate(776.25,686.25) scale(3.09)"><rect width="6" height="6"/></g>
<g transform="translate(794.25,686.25) scale(3.09)"><rect width="6" height="6"/></g>
<g transform="translate(812.25,686.25) scale(3.09)"><rect width="6" height="6"/></g>
<g transform="translate(830.25,686.25) scale(3.09)"><rect width="6" height="6"/></g>
<g transform="translate(848.25,686.25) scale(3.09)"><rect width="6" height="6"/></g>
<g transform="translate(272.25,704.25) scale(3.09)"><rect width="6" height="6"/></g>
<g transform="translate(308.25,704.25) scale(3.09)"><rect width="6" height="6"/></g>
<g transform="translate(362.25,704.25) scale(3.09)"><rect width="6" height="6"/></g>
<g transform="translate(380.25,704.25) scale(3.09)"><rect width="6" height="6"/></g>
<g transform="translate(416.25,704.25) scale(3.09)"><rect width="6" height="6"/></g>
<g transform="translate(452.25,704.25) scale(3.09)"><rect width="6" height="6"/></g>
<g transform="translate(470.25,704.25) scale(3.09)"><rect width="6" height="6"/></g>
<g transform="translate(488.25,704.25) scale(3.09)"><rect width="6" height="6"/></g>
<g transform="translate(506.25,704.25) scale(3.09)"><rect width="6" height="6"/></g>
<g transform="translate(524.25,704.25) scale(3.09)"><rect width="6" height="6"/></g>
<g transform="translate(560.25,704.25) scale(3.09)"><rect width="6" height="6"/></g>
<g transform="translate(578.25,704.25) scale(3.09)"><rect width="6" height="6"/></g>
<g transform="translate(614.25,704.25) scale(3.09)"><rect width="6" height="6"/></g>
<g transform="translate(632.25,704.25) scale(3.09)"><rect width="6" height="6"/></g>
<g transform="translate(668.25,704.25) scale(3.09)"><rect width="6" height="6"/></g>
<g transform="translate(704.25,704.25) scale(3.09)"><rect width="6" height="6"/></g>
<g transform="translate(722.25,704.25) scale(3.09)"><rect width="6" height="6"/></g>
<g transform="translate(740.25,704.25) scale(3.09)"><rect width="6" height="6"/></g>
<g transform="translate(758.25,704.25) scale(3.09)"><rect width="6" height="6"/></g>
<g transform="translate(776.25,704.25) scale(3.09)"><rect width="6" height="6"/></g>
<g transform="translate(830.25,704.25) scale(3.09)"><rect width="6" height="6"/></g>
<g transform="translate(848.25,704.25) scale(3.09)"><rect width="6" height="6"/></g>
<g transform="translate(416.25,722.25) scale(3.09)"><rect width="6" height="6"/></g>
<g transform="translate(434.25,722.25) scale(3.09)"><rect width="6" height="6"/></g>
<g transform="translate(452.25,722.25) scale(3.09)"><rect width="6" height="6"/></g>
<g transform="translate(470.25,722.25) scale(3.09)"><rect width="6" height="6"/></g>
<g transform="translate(488.25,722.25) scale(3.09)"><rect width="6" height="6"/></g>
<g transform="translate(560.25,722.25) scale(3.09)"><rect width="6" height="6"/></g>
<g transform="translate(578.25,722.25) scale(3.09)"><rect width="6" height="6"/></g>
<g transform="translate(596.25,722.25) scale(3.09)"><rect width="6" height="6"/></g>
<g transform="translate(614.25,722.25) scale(3.09)"><rect width="6" height="6"/></g>
<g transform="translate(632.25,722.25) scale(3.09)"><rect width="6" height="6"/></g>
<g transform="translate(668.25,722.25) scale(3.09)"><rect width="6" height="6"/></g>
<g transform="translate(704.25,722.25) scale(3.09)"><rect width="6" height="6"/></g>
<g transform="translate(776.25,722.25) scale(3.09)"><rect width="6" height="6"/></g>
<g transform="translate(812.25,722.25) scale(3.09)"><rect width="6" height="6"/></g>
<g transform="translate(848.25,722.25) scale(3.09)"><rect width="6" height="6"/></g>
<g transform="translate(434.25,740.25) scale(3.09)"><rect width="6" height="6"/></g>
<g transform="translate(452.25,740.25) scale(3.09)"><rect width="6" height="6"/></g>
<g transform="translate(542.25,740.25) scale(3.09)"><rect width="6" height="6"/></g>
<g transform="translate(578.25,740.25) scale(3.09)"><rect width="6" height="6"/></g>
<g transform="translate(668.25,740.25) scale(3.09)"><rect width="6" height="6"/></g>
<g transform="translate(686.25,740.25) scale(3.09)"><rect width="6" height="6"/></g>
<g transform="translate(704.25,740.25) scale(3.09)"><rect width="6" height="6"/></g>
<g transform="translate(740.25,740.25) scale(3.09)"><rect width="6" height="6"/></g>
<g transform="translate(776.25,740.25) scale(3.09)"><rect width="6" height="6"/></g>
<g transform="translate(812.25,740.25) scale(3.09)"><rect width="6" height="6"/></g>
<g transform="translate(830.25,740.25) scale(3.09)"><rect width="6" height="6"/></g>
<g transform="translate(416.25,758.25) scale(3.09)"><rect width="6" height="6"/></g>
<g transform="translate(434.25,758.25) scale(3.09)"><rect width="6" height="6"/></g>
<g transform="translate(488.25,758.25) scale(3.09)"><rect width="6" height="6"/></g>
<g transform="translate(506.25,758.25) scale(3.09)"><rect width="6" height="6"/></g>
<g transform="translate(524.25,758.25) scale(3.09)"><rect width="6" height="6"/></g>
<g transform="translate(560.25,758.25) scale(3.09)"><rect width="6" height="6"/></g>
<g transform="translate(578.25,758.25) scale(3.09)"><rect width="6" height="6"/></g>
<g transform="translate(596.25,758.25) scale(3.09)"><rect width="6" height="6"/></g>
<g transform="translate(614.25,758.25) scale(3.09)"><rect width="6" height="6"/></g>
<g transform="translate(632.25,758.25) scale(3.09)"><rect width="6" height="6"/></g>
<g transform="translate(686.25,758.25) scale(3.09)"><rect width="6" height="6"/></g>
<g transform="translate(704.25,758.25) scale(3.09)"><rect width="6" height="6"/></g>
<g transform="translate(776.25,758.25) scale(3.09)"><rect width="6" height="6"/></g>
<g transform="translate(794.25,758.25) scale(3.09)"><rect width="6" height="6"/></g>
<g transform="translate(812.25,758.25) scale(3.09)"><rect width="6" height="6"/></g>
<g transform="translate(848.25,758.25) scale(3.09)"><rect width="6" height="6"/></g>
<g transform="translate(416.25,776.25) scale(3.09)"><rect width="6" height="6"/></g>
<g transform="translate(434.25,776.25) scale(3.09)"><rect width="6" height="6"/></g>
<g transform="translate(524.25,776.25) scale(3.09)"><rect width="6" height="6"/></g>
<g transform="translate(560.25,776.25) scale(3.09)"><rect width="6" height="6"/></g>
<g transform="translate(614.25,776.25) scale(3.09)"><rect width="6" height="6"/></g>
<g transform="translate(632.25,776.25) scale(3.09)"><rect width="6" height="6"/></g>
<g transform="translate(650.25,776.25) scale(3.09)"><rect width="6" height="6"/></g>
<g transform="translate(668.25,776.25) scale(3.09)"><rect width="6" height="6"/></g>
<g transform="translate(704.25,776.25) scale(3.09)"><rect width="6" height="6"/></g>
<g transform="translate(722.25,776.25) scale(3.09)"><rect width="6" height="6"/></g>
<g transform="translate(740.25,776.25) scale(3.09)"><rect width="6" height="6"/></g>
<g transform="translate(758.25,776.25) scale(3.09)"><rect width="6" height="6"/></g>
<g transform="translate(776.25,776.25) scale(3.09)"><rect width="6" height="6"/></g>
<g transform="translate(794.25,776.25) scale(3.09)"><rect width="6" height="6"/></g>
<g transform="translate(416.25,794.25) scale(3.09)"><rect width="6" height="6"/></g>
<g transform="translate(452.25,794.25) scale(3.09)"><rect width="6" height="6"/></g>
<g transform="translate(470.25,794.25) scale(3.09)"><rect width="6" height="6"/></g>
<g transform="translate(488.25,794.25) scale(3.09)"><rect width="6" height="6"/></g>
<g transform="translate(506.25,794.25) scale(3.09)"><rect width="6" height="6"/></g>
<g transform="translate(542.25,794.25) scale(3.09)"><rect width="6" height="6"/></g>
<g transform="translate(596.25,794.25) scale(3.09)"><rect width="6" height="6"/></g>
<g transform="translate(704.25,794.25) scale(3.09)"><rect width="6" height="6"/></g>
<g transform="translate(722.25,794.25) scale(3.09)"><rect width="6" height="6"/></g>
<g transform="translate(776.25,794.25) scale(3.09)"><rect width="6" height="6"/></g>
<g transform="translate(794.25,794.25) scale(3.09)"><rect width="6" height="6"/></g>
<g transform="translate(848.25,794.25) scale(3.09)"><rect width="6" height="6"/></g>
<g transform="translate(416.25,812.25) scale(3.09)"><rect width="6" height="6"/></g>
<g transform="translate(470.25,812.25) scale(3.09)"><rect width="6" height="6"/></g>
<g transform="translate(488.25,812.25) scale(3.09)"><rect width="6" height="6"/></g>
<g transform="translate(524.25,812.25) scale(3.09)"><rect width="6" height="6"/></g>
<g transform="translate(542.25,812.25) scale(3.09)"><rect width="6" height="6"/></g>
<g transform="translate(560.25,812.25) scale(3.09)"><rect width="6" height="6"/></g>
<g transform="translate(596.25,812.25) scale(3.09)"><rect width="6" height="6"/></g>
<g transform="translate(632.25,812.25) scale(3.09)"><rect width="6" height="6"/></g>
<g transform="translate(686.25,812.25) scale(3.09)"><rect width="6" height="6"/></g>
<g transform="translate(740.25,812.25) scale(3.09)"><rect width="6" height="6"/></g>
<g transform="translate(758.25,812.25) scale(3.09)"><rect width="6" height="6"/></g>
<g transform="translate(794.25,812.25) scale(3.09)"><rect width="6" height="6"/></g>
<g transform="translate(812.25,812.25) scale(3.09)"><rect width="6" height="6"/></g>
<g transform="translate(470.25,830.25) scale(3.09)"><rect width="6" height="6"/></g>
<g transform="translate(488.25,830.25) scale(3.09)"><rect width="6" height="6"/></g>
<g transform="translate(542.25,830.25) scale(3.09)"><rect width="6" height="6"/></g>
<g transform="translate(650.25,830.25) scale(3.09)"><rect width="6" height="6"/></g>
<g transform="translate(686.25,830.25) scale(3.09)"><rect width="6" height="6"/></g>
<g transform="translate(722.25,830.25) scale(3.09)"><rect width="6" height="6"/></g>
<g transform="translate(776.25,830.25) scale(3.09)"><rect width="6" height="6"/></g>
<g transform="translate(812.25,830.25) scale(3.09)"><rect width="6" height="6"/></g>
<g transform="translate(416.25,848.25) scale(3.09)"><rect width="6" height="6"/></g>
<g transform="translate(434.25,848.25) scale(3.09)"><rect width="6" height="6"/></g>
<g transform="translate(488.25,848.25) scale(3.09)"><rect width="6" height="6"/></g>
<g transform="translate(506.25,848.25) scale(3.09)"><rect width="6" height="6"/></g>
<g transform="translate(524.25,848.25) scale(3.09)"><rect width="6" height="6"/></g>
<g transform="translate(542.25,848.25) scale(3.09)"><rect width="6" height="6"/></g>
<g transform="translate(578.25,848.25) scale(3.09)"><rect width="6" height="6"/></g>
<g transform="translate(686.25,848.25) scale(3.09)"><rect width="6" height="6"/></g>
<g transform="translate(704.25,848.25) scale(3.09)"><rect width="6" height="6"/></g>
<g transform="translate(758.25,848.25) scale(3.09)"><rect width="6" height="6"/></g>
<g transform="translate(830.25,848.25) scale(3.09)"><rect width="6" height="6"/></g>
<g transform="translate(272.25,272.25)"><g transform="scale(9)"><path d="M0,0v14h14V0H0z M12,12H2V2h10V12z"/></g></g>
<g transform="translate(740.25,272.25)"><g transform="scale(9)"><path d="M0,0v14h14V0H0z M12,12H2V2h10V12z"/></g></g>
<g transform="translate(272.25,740.25)"><g transform="scale(9)"><path d="M0,0v14h14V0H0z M12,12H2V2h10V12z"/></g></g>
<g transform="translate(308.25,308.25)"><g transform="scale(9)"><rect width="6" height="6"/></g></g>
<g transform="translate(776.25,308.25)"><g transform="scale(9)"><rect width="6" height="6"/></g></g>
<g transform="translate(308.25,776.25)"><g transform="scale(9)"><rect width="6" height="6"/></g></g>
</g><g transform="translate(272.25,913.3367136427) scale(1.3037316471975)"><path fill="#FFFFFF" d="M4.4921875,96.923828125l8.935546875-0.78125q0.634765625,5.37109375,2.9541015625,8.8134765625t7.2021484375,5.56640625t10.986328125,2.1240234375q5.419921875,0,9.5703125-1.611328125t6.1767578125-4.4189453125t2.0263671875-6.1279296875q0-3.369140625-1.953125-5.8837890625t-6.4453125-4.2236328125q-2.880859375-1.123046875-12.744140625-3.4912109375t-13.818359375-4.4677734375q-5.126953125-2.685546875-7.6416015625-6.6650390625t-2.5146484375-8.9111328125q0-5.419921875,3.076171875-10.1318359375t8.984375-7.1533203125t13.134765625-2.44140625q7.958984375,0,14.0380859375,2.5634765625t9.3505859375,7.5439453125t3.515625,11.279296875l-9.08203125,0.68359375q-0.732421875-6.787109375-4.9560546875-10.25390625t-12.4755859375-3.466796875q-8.59375,0-12.5244140625,3.1494140625t-3.9306640625,7.5927734375q0,3.857421875,2.783203125,6.34765625q2.734375,2.490234375,14.2822265625,5.1025390625t15.8447265625,4.5654296875q6.25,2.880859375,9.228515625,7.2998046875t2.978515625,10.1806640625q0,5.712890625-3.271484375,10.7666015625t-9.3994140625,7.861328125t-13.7939453125,2.8076171875q-9.716796875,0-16.2841796875-2.83203125t-10.302734375-8.5205078125t-3.9306640625-12.8662109375z M125.48828125,94.82421875l9.47265625,2.392578125q-2.978515625,11.669921875-10.7177734375,17.7978515625t-18.9208984375,6.1279296875q-11.572265625,0-18.8232421875-4.7119140625t-11.03515625-13.6474609375t-3.7841796875-19.189453125q0-11.181640625,4.2724609375-19.5068359375t12.158203125-12.646484375t17.3583984375-4.3212890625q10.7421875,0,18.06640625,5.46875t10.205078125,15.380859375l-9.326171875,2.197265625q-2.490234375-7.8125-7.2265625-11.376953125t-11.9140625-3.564453125q-8.251953125,0-13.7939453125,3.955078125t-7.7880859375,10.6201171875t-2.24609375,13.7451171875q0,9.130859375,2.6611328125,15.9423828125t8.2763671875,10.1806640625t12.158203125,3.369140625q7.958984375,0,13.4765625-4.58984375t7.470703125-13.623046875z M138.76953125,119.921875l27.490234375-71.58203125l10.205078125,0l29.296875,71.58203125l-10.791015625,0l-8.349609375-21.6796875l-29.931640625,0l-7.861328125,21.6796875l-10.05859375,0z M159.423828125,90.52734375l24.267578125,0l-7.470703125-19.82421875q-3.41796875-9.033203125-5.078125-14.84375q-1.3671875,6.884765625-3.857421875,13.671875z M213.232421875,119.921875l0-71.58203125l9.716796875,0l37.59765625,56.201171875l0-56.201171875l9.08203125,0l0,71.58203125l-9.716796875,0l-37.59765625-56.25l0,56.25l-9.08203125,0z  M313.037109375,119.921875l0-71.58203125l14.2578125,0l16.943359375,50.68359375q2.34375,7.080078125,3.41796875,10.595703125q1.220703125-3.90625,3.80859375-11.474609375l17.138671875-49.8046875l12.744140625,0l0,71.58203125l-9.130859375,0l0-59.912109375l-20.80078125,59.912109375l-8.544921875,0l-20.703125-60.9375l0,60.9375l-9.130859375,0z M396.826171875,119.921875l0-71.58203125l51.7578125,0l0,8.447265625l-42.28515625,0l0,21.923828125l39.599609375,0l0,8.3984375l-39.599609375,0l0,24.365234375l43.9453125,0l0,8.447265625l-53.41796875,0z"/></g></svg>
